<svg width="55" height="55" viewBox="0 0 55 55" fill="none" xmlns="http://www.w3.org/2000/svg">
<circle cx="27.5" cy="27.5" r="27.5" fill="white"/>
<path d="M34.84 32.2923C33.8904 32.2923 33.1205 31.5224 33.1205 30.5727V20.5596C33.1205 17.1848 30.3749 14.4391 27 14.4391C23.6252 14.4391 20.8796 17.1848 20.8796 20.5596V26.3834C20.8796 27.3331 20.1097 28.103 19.16 28.103C18.2103 28.103 17.4404 27.3331 17.4404 26.3834V20.5596C17.4404 15.2884 21.7288 11 27 11C32.2712 11 36.5596 15.2884 36.5596 20.5596V30.5727C36.5596 31.5224 35.7897 32.2923 34.84 32.2923Z" fill="#B1B4B5"/>
<path d="M37.4626 42.7059H16.5374C14.5838 42.7059 13 41.1221 13 39.1685V27.0706C13 25.117 14.5838 23.5332 16.5374 23.5332H37.4626C39.4162 23.5332 41 25.117 41 27.0706V39.1684C41 41.1221 39.4162 42.7059 37.4626 42.7059Z" fill="#FFB636"/>
</svg>
