<svg width="255" height="75" viewBox="0 0 255 75" fill="none" xmlns="http://www.w3.org/2000/svg">
<path d="M89.694 35.9229C88.234 35.9229 86.914 35.6729 85.734 35.1729C84.574 34.6729 83.654 33.9529 82.974 33.0129C82.294 32.0729 81.944 30.9629 81.924 29.6829H86.424C86.484 30.5429 86.784 31.2229 87.324 31.7229C87.884 32.2229 88.644 32.4729 89.604 32.4729C90.584 32.4729 91.354 32.2429 91.914 31.7829C92.474 31.3029 92.754 30.6829 92.754 29.9229C92.754 29.3029 92.564 28.7929 92.184 28.3929C91.804 27.9929 91.324 27.6829 90.744 27.4629C90.184 27.2229 89.404 26.9629 88.404 26.6829C87.044 26.2829 85.934 25.8929 85.074 25.5129C84.234 25.1129 83.504 24.5229 82.884 23.7429C82.284 22.9429 81.984 21.8829 81.984 20.5629C81.984 19.3229 82.294 18.2429 82.914 17.3229C83.534 16.4029 84.404 15.7029 85.524 15.2229C86.644 14.7229 87.924 14.4729 89.364 14.4729C91.524 14.4729 93.274 15.0029 94.614 16.0629C95.974 17.1029 96.724 18.5629 96.864 20.4429H92.244C92.204 19.7229 91.894 19.1329 91.314 18.6729C90.754 18.1929 90.004 17.9529 89.064 17.9529C88.244 17.9529 87.584 18.1629 87.084 18.5829C86.604 19.0029 86.364 19.6129 86.364 20.4129C86.364 20.9729 86.544 21.4429 86.904 21.8229C87.284 22.1829 87.744 22.4829 88.284 22.7229C88.844 22.9429 89.624 23.2029 90.624 23.5029C91.984 23.9029 93.094 24.3029 93.954 24.7029C94.814 25.1029 95.554 25.7029 96.174 26.5029C96.794 27.3029 97.104 28.3529 97.104 29.6529C97.104 30.7729 96.814 31.8129 96.234 32.7729C95.654 33.7329 94.804 34.5029 93.684 35.0829C92.564 35.6429 91.234 35.9229 89.694 35.9229ZM110.465 35.9229C108.505 35.9229 106.705 35.4629 105.065 34.5429C103.425 33.6229 102.125 32.3529 101.165 30.7329C100.205 29.0929 99.7253 27.2429 99.7253 25.1829C99.7253 23.1429 100.205 21.3129 101.165 19.6929C102.125 18.0529 103.425 16.7729 105.065 15.8529C106.705 14.9329 108.505 14.4729 110.465 14.4729C112.445 14.4729 114.245 14.9329 115.865 15.8529C117.505 16.7729 118.795 18.0529 119.735 19.6929C120.695 21.3129 121.175 23.1429 121.175 25.1829C121.175 27.2429 120.695 29.0929 119.735 30.7329C118.795 32.3529 117.505 33.6229 115.865 34.5429C114.225 35.4629 112.425 35.9229 110.465 35.9229ZM110.465 32.1729C111.725 32.1729 112.835 31.8929 113.795 31.3329C114.755 30.7529 115.505 29.9329 116.045 28.8729C116.585 27.8129 116.855 26.5829 116.855 25.1829C116.855 23.7829 116.585 22.5629 116.045 21.5229C115.505 20.4629 114.755 19.6529 113.795 19.0929C112.835 18.5329 111.725 18.2529 110.465 18.2529C109.205 18.2529 108.085 18.5329 107.105 19.0929C106.145 19.6529 105.395 20.4629 104.855 21.5229C104.315 22.5629 104.045 23.7829 104.045 25.1829C104.045 26.5829 104.315 27.8129 104.855 28.8729C105.395 29.9329 106.145 30.7529 107.105 31.3329C108.085 31.8929 109.205 32.1729 110.465 32.1729ZM123.28 25.2129C123.28 23.1529 123.74 21.3129 124.66 19.6929C125.6 18.0529 126.87 16.7829 128.47 15.8829C130.09 14.9629 131.9 14.5029 133.9 14.5029C136.24 14.5029 138.29 15.1029 140.05 16.3029C141.81 17.5029 143.04 19.1629 143.74 21.2829H138.91C138.43 20.2829 137.75 19.5329 136.87 19.0329C136.01 18.5329 135.01 18.2829 133.87 18.2829C132.65 18.2829 131.56 18.5729 130.6 19.1529C129.66 19.7129 128.92 20.5129 128.38 21.5529C127.86 22.5929 127.6 23.8129 127.6 25.2129C127.6 26.5929 127.86 27.8129 128.38 28.8729C128.92 29.9129 129.66 30.7229 130.6 31.3029C131.56 31.8629 132.65 32.1429 133.87 32.1429C135.01 32.1429 136.01 31.8929 136.87 31.3929C137.75 30.8729 138.43 30.1129 138.91 29.1129H143.74C143.04 31.2529 141.81 32.9229 140.05 34.1229C138.31 35.3029 136.26 35.8929 133.9 35.8929C131.9 35.8929 130.09 35.4429 128.47 34.5429C126.87 33.6229 125.6 32.3529 124.66 30.7329C123.74 29.1129 123.28 27.2729 123.28 25.2129ZM151.527 14.7729V35.7129H147.327V14.7729H151.527ZM159.877 18.1629V23.4129H166.927V26.7429H159.877V32.2929H167.827V35.7129H155.677V14.7429H167.827V18.1629H159.877ZM185.894 14.7729V18.1629H180.314V35.7129H176.114V18.1629H170.534V14.7729H185.894ZM205.608 14.7729L198.528 28.4229V35.7129H194.328V28.4229L187.218 14.7729H191.958L196.458 24.3429L200.928 14.7729H205.608ZM229.399 17.4729H219.679V22.6029C220.099 22.0829 220.699 21.6629 221.479 21.3429C222.259 21.0029 223.089 20.8329 223.969 20.8329C225.569 20.8329 226.879 21.1829 227.899 21.8829C228.919 22.5829 229.659 23.4829 230.119 24.5829C230.579 25.6629 230.809 26.8229 230.809 28.0629C230.809 30.3629 230.149 32.2129 228.829 33.6129C227.529 35.0129 225.669 35.7129 223.249 35.7129C220.969 35.7129 219.149 35.1429 217.789 34.0029C216.429 32.8629 215.659 31.3729 215.479 29.5329H219.559C219.739 30.3329 220.139 30.9729 220.759 31.4529C221.399 31.9329 222.209 32.1729 223.189 32.1729C224.369 32.1729 225.259 31.8029 225.859 31.0629C226.459 30.3229 226.759 29.3429 226.759 28.1229C226.759 26.8829 226.449 25.9429 225.829 25.3029C225.229 24.6429 224.339 24.3129 223.159 24.3129C222.319 24.3129 221.619 24.5229 221.059 24.9429C220.499 25.3629 220.099 25.9229 219.859 26.6229H215.839V13.7829H229.399V17.4729Z" fill="white"/>
<path d="M87.34 55.098C86.6587 55.098 86.0427 54.9813 85.492 54.748C84.9507 54.5147 84.5213 54.1787 84.204 53.74C83.8867 53.3013 83.7233 52.7833 83.714 52.186H85.814C85.842 52.5873 85.982 52.9047 86.234 53.138C86.4953 53.3713 86.85 53.488 87.298 53.488C87.7553 53.488 88.1147 53.3807 88.376 53.166C88.6373 52.942 88.768 52.6527 88.768 52.298C88.768 52.0087 88.6793 51.7707 88.502 51.584C88.3247 51.3973 88.1007 51.2527 87.83 51.15C87.5687 51.038 87.2047 50.9167 86.738 50.786C86.1033 50.5993 85.5853 50.4173 85.184 50.24C84.792 50.0533 84.4513 49.778 84.162 49.414C83.882 49.0407 83.742 48.546 83.742 47.93C83.742 47.3513 83.8867 46.8473 84.176 46.418C84.4653 45.9887 84.8713 45.662 85.394 45.438C85.9167 45.2047 86.514 45.088 87.186 45.088C88.194 45.088 89.0107 45.3353 89.636 45.83C90.2707 46.3153 90.6207 46.9967 90.686 47.874H88.53C88.5113 47.538 88.3667 47.2627 88.096 47.048C87.8347 46.824 87.4847 46.712 87.046 46.712C86.6633 46.712 86.3553 46.81 86.122 47.006C85.898 47.202 85.786 47.4867 85.786 47.86C85.786 48.1213 85.87 48.3407 86.038 48.518C86.2153 48.686 86.43 48.826 86.682 48.938C86.9433 49.0407 87.3073 49.162 87.774 49.302C88.4087 49.4887 88.9267 49.6753 89.328 49.862C89.7293 50.0487 90.0747 50.3287 90.364 50.702C90.6533 51.0753 90.798 51.5653 90.798 52.172C90.798 52.6947 90.6627 53.18 90.392 53.628C90.1213 54.076 89.7247 54.4353 89.202 54.706C88.6793 54.9673 88.0587 55.098 87.34 55.098ZM104.733 55.098C103.819 55.098 102.979 54.8833 102.213 54.454C101.448 54.0247 100.841 53.432 100.393 52.676C99.9453 51.9107 99.7213 51.0473 99.7213 50.086C99.7213 49.134 99.9453 48.28 100.393 47.524C100.841 46.7587 101.448 46.1613 102.213 45.732C102.979 45.3027 103.819 45.088 104.733 45.088C105.657 45.088 106.497 45.3027 107.253 45.732C108.019 46.1613 108.621 46.7587 109.059 47.524C109.507 48.28 109.731 49.134 109.731 50.086C109.731 51.0473 109.507 51.9107 109.059 52.676C108.621 53.432 108.019 54.0247 107.253 54.454C106.488 54.8833 105.648 55.098 104.733 55.098ZM104.733 53.348C105.321 53.348 105.839 53.2173 106.287 52.956C106.735 52.6853 107.085 52.3027 107.337 51.808C107.589 51.3133 107.715 50.7393 107.715 50.086C107.715 49.4327 107.589 48.8633 107.337 48.378C107.085 47.8833 106.735 47.5053 106.287 47.244C105.839 46.9827 105.321 46.852 104.733 46.852C104.145 46.852 103.623 46.9827 103.165 47.244C102.717 47.5053 102.367 47.8833 102.115 48.378C101.863 48.8633 101.737 49.4327 101.737 50.086C101.737 50.7393 101.863 51.3133 102.115 51.808C102.367 52.3027 102.717 52.6853 103.165 52.956C103.623 53.2173 104.145 53.348 104.733 53.348ZM120.849 53.446H124.069V55H118.889V45.228H120.849V53.446ZM134.947 45.228V51.276C134.947 51.9387 135.12 52.4473 135.465 52.802C135.811 53.1473 136.296 53.32 136.921 53.32C137.556 53.32 138.046 53.1473 138.391 52.802C138.737 52.4473 138.909 51.9387 138.909 51.276V45.228H140.883V51.262C140.883 52.0927 140.701 52.7973 140.337 53.376C139.983 53.9453 139.502 54.3747 138.895 54.664C138.298 54.9533 137.631 55.098 136.893 55.098C136.165 55.098 135.503 54.9533 134.905 54.664C134.317 54.3747 133.851 53.9453 133.505 53.376C133.16 52.7973 132.987 52.0927 132.987 51.262V45.228H134.947ZM157.127 45.228V46.81H154.523V55H152.563V46.81H149.959V45.228H157.127ZM168.217 45.228V55H166.257V45.228H168.217ZM182.389 55.098C181.475 55.098 180.635 54.8833 179.869 54.454C179.104 54.0247 178.497 53.432 178.049 52.676C177.601 51.9107 177.377 51.0473 177.377 50.086C177.377 49.134 177.601 48.28 178.049 47.524C178.497 46.7587 179.104 46.1613 179.869 45.732C180.635 45.3027 181.475 45.088 182.389 45.088C183.313 45.088 184.153 45.3027 184.909 45.732C185.675 46.1613 186.277 46.7587 186.715 47.524C187.163 48.28 187.387 49.134 187.387 50.086C187.387 51.0473 187.163 51.9107 186.715 52.676C186.277 53.432 185.675 54.0247 184.909 54.454C184.144 54.8833 183.304 55.098 182.389 55.098ZM182.389 53.348C182.977 53.348 183.495 53.2173 183.943 52.956C184.391 52.6853 184.741 52.3027 184.993 51.808C185.245 51.3133 185.371 50.7393 185.371 50.086C185.371 49.4327 185.245 48.8633 184.993 48.378C184.741 47.8833 184.391 47.5053 183.943 47.244C183.495 46.9827 182.977 46.852 182.389 46.852C181.801 46.852 181.279 46.9827 180.821 47.244C180.373 47.5053 180.023 47.8833 179.771 48.378C179.519 48.8633 179.393 49.4327 179.393 50.086C179.393 50.7393 179.519 51.3133 179.771 51.808C180.023 52.3027 180.373 52.6853 180.821 52.956C181.279 53.2173 181.801 53.348 182.389 53.348ZM204.904 55H202.944L198.506 48.294V55H196.546V45.214H198.506L202.944 51.934V45.214H204.904V55ZM217.915 55.098C217.233 55.098 216.617 54.9813 216.067 54.748C215.525 54.5147 215.096 54.1787 214.779 53.74C214.461 53.3013 214.298 52.7833 214.289 52.186H216.389C216.417 52.5873 216.557 52.9047 216.809 53.138C217.07 53.3713 217.425 53.488 217.873 53.488C218.33 53.488 218.689 53.3807 218.951 53.166C219.212 52.942 219.343 52.6527 219.343 52.298C219.343 52.0087 219.254 51.7707 219.077 51.584C218.899 51.3973 218.675 51.2527 218.405 51.15C218.143 51.038 217.779 50.9167 217.313 50.786C216.678 50.5993 216.16 50.4173 215.759 50.24C215.367 50.0533 215.026 49.778 214.737 49.414C214.457 49.0407 214.317 48.546 214.317 47.93C214.317 47.3513 214.461 46.8473 214.751 46.418C215.04 45.9887 215.446 45.662 215.969 45.438C216.491 45.2047 217.089 45.088 217.761 45.088C218.769 45.088 219.585 45.3353 220.211 45.83C220.845 46.3153 221.195 46.9967 221.261 47.874H219.105C219.086 47.538 218.941 47.2627 218.671 47.048C218.409 46.824 218.059 46.712 217.621 46.712C217.238 46.712 216.93 46.81 216.697 47.006C216.473 47.202 216.361 47.4867 216.361 47.86C216.361 48.1213 216.445 48.3407 216.613 48.518C216.79 48.686 217.005 48.826 217.257 48.938C217.518 49.0407 217.882 49.162 218.349 49.302C218.983 49.4887 219.501 49.6753 219.903 49.862C220.304 50.0487 220.649 50.3287 220.939 50.702C221.228 51.0753 221.373 51.5653 221.373 52.172C221.373 52.6947 221.237 53.18 220.967 53.628C220.696 54.076 220.299 54.4353 219.777 54.706C219.254 54.9673 218.633 55.098 217.915 55.098Z" fill="#00AEEF"/>
<path d="M38.7526 72.2285L75.7395 45.853L62.0856 2.52188L16.6521 2.12344L2.23404 45.2084L38.7526 72.2285Z" stroke="url(#paint0_linear_742_2273)" stroke-width="3" stroke-miterlimit="10"/>
<path d="M39.2822 3.20508L10.4395 24.1569L21.4521 58.0656H57.1073L68.1249 24.1569L39.2822 3.20508Z" fill="url(#paint1_linear_742_2273)"/>
<path d="M24.3052 18.2767L39.3768 6.82227L57.7642 20.0853L54.1469 24.3053L39.3768 13.7552L29.4295 21.291L24.3052 18.2767Z" fill="white"/>
<path d="M53.8457 44.1999L39.377 55.6543L20.6882 42.3913L24.3055 38.1713L39.377 48.7214L49.0228 41.487L53.8457 44.1999Z" fill="white"/>
<path d="M24.0094 19.4824C33.9369 25.0894 43.8645 30.7062 53.7921 36.3329L54.4487 42.9941L23.7026 26.1959C23.8082 23.9564 23.9104 21.7186 24.0094 19.4824Z" fill="white"/>
<defs>
<linearGradient id="paint0_linear_742_2273" x1="59.2198" y1="60.4293" x2="17.8064" y2="2.06422" gradientUnits="userSpaceOnUse">
<stop stop-color="#71BDEF"/>
<stop offset="1" stop-color="#2A76B4"/>
</linearGradient>
<linearGradient id="paint1_linear_742_2273" x1="21.7292" y1="12.4862" x2="57.3497" y2="58.0013" gradientUnits="userSpaceOnUse">
<stop stop-color="#7AC7F7"/>
<stop offset="1" stop-color="#226EAD"/>
</linearGradient>
</defs>
</svg>
